<?xml version="1.0" encoding="utf-8"?>
<!-- Generator: Adobe Illustrator 16.2.0, SVG Export Plug-In . SVG Version: 6.00 Build 0)  -->
<!DOCTYPE svg PUBLIC "-//W3C//DTD SVG 1.1//EN" "http://www.w3.org/Graphics/SVG/1.1/DTD/svg11.dtd">
<svg version="1.1" id="Layer_1" xmlns="http://www.w3.org/2000/svg" xmlns:xlink="http://www.w3.org/1999/xlink" x="0px" y="0px"
	 width="256px" height="256px" viewBox="0 0 256 256" enable-background="new 0 0 256 256" xml:space="preserve">
<path fill="#29ABE2" d="M211.297,185.072c-1.51-11.512-9.758-21.023-22.484-27.746c5.26,4.701,8.543,10.18,9.342,16.352
	c3.559,27.244-42.09,57.289-101.949,67.123c-20.462,3.35-39.944,3.906-56.856,2.1c19.846,7.371,55.762,10.545,88.362,5.787
	C181.328,240.844,215.057,213.908,211.297,185.072z"/>
<polygon fill="#29ABE2" points="106.685,42.794 106.685,215.307 142.123,215.307 142.123,3.058 "/>
<polygon fill="#29ABE2" points="63.45,120.451 63.45,215.307 98.888,215.307 98.888,80.714 "/>
<polygon fill="#29ABE2" points="185.34,90.864 185.34,215.307 149.91,215.307 149.91,51.129 "/>
</svg>
